<svg xmlns="http://www.w3.org/2000/svg" version="1.0" width="258.000000pt" height="210.000000pt" viewBox="0 0 258.000000 210.000000" preserveAspectRatio="xMidYMid meet">

<g transform="translate(0.000000,210.000000) scale(0.100000,-0.100000)" fill="#0c70b7" stroke="none">
<path d="M1275 2086 c-45 -20 -72 -54 -207 -266 -69 -107 -201 -314 -295 -460 -93 -146 -299 -467 -457 -713 -158 -247 -295 -465 -303 -485 -18 -44 -12 -117 11 -141 15 -15 122 -16 1278 -19 726 -1 1266 2 1271 7 13 13 -13 87 -40 113 l-25 23 -1096 0 c-604 1 -1103 4 -1110 9 -18 11 -15 44 7 74 10 15 188 306 396 647 207 341 392 643 409 670 18 28 63 103 101 167 39 65 73 117 77 118 3 0 24 -33 47 -74 56 -102 76 -116 166 -116 40 0 86 3 102 6 l30 6 -70 131 c-143 273 -208 340 -292 303z" fill="#0c70b7"/>
<path d="M1177 1517 c-27 -9 2 38 -417 -672 -188 -319 -349 -590 -356 -602 l-14 -23 97 0 c54 0 104 4 110 8 12 8 190 326 336 603 37 69 75 133 84 142 16 13 81 16 511 23 270 4 492 8 492 9 0 5 -300 499 -307 506 -11 10 -507 16 -536 6z m470 -261 c29 -43 53 -80 53 -82 0 -2 -119 -4 -265 -4 -146 0 -265 2 -265 5 0 3 21 41 46 85 l47 80 165 -2 166 -3 53 -79z" fill="#0c70b7"/>
<path d="M1086 861 c-10 -4 -98 -143 -200 -317 l-182 -309 443 -3 c244 -1 642 -1 886 0 l443 3 -113 184 c-62 102 -117 189 -122 194 -12 12 -612 10 -624 -2 -11 -10 21 -96 43 -116 17 -16 40 -17 222 -13 156 4 209 2 229 -8 27 -13 43 -37 32 -48 -9 -9 -1133 -7 -1133 2 0 11 132 256 149 276 12 14 65 16 512 16 l498 0 -46 66 c-25 36 -57 70 -70 75 -29 11 -939 11 -967 0z" fill="#0c70b7"/>
</g>
</svg>